# MagicaVoxel @ Ephtracy

# group
g penguin_blue2

# material
mtllib penguin_blue2.mtl
usemtl palette

# normals
vn -1 0 0
vn 1 0 0
vn 0 0 1
vn 0 0 -1
vn 0 -1 0
vn 0 1 0

# texcoords
vt 0.0917969 0.5
vt 0.810547 0.5
vt 0.876953 0.5
vt 0.958984 0.5
vt 0.994141 0.5

# verts
v -12 8 3
v -12 8 1
v -12 9 3
v -12 9 1
v -9 10 3
v -9 10 1
v -9 11 3
v -9 11 2
v -9 12 3
v -9 12 2
v -9 12 1
v -8 0 4
v -8 0 1
v -8 1 4
v -8 1 1
v -8 2 4
v -8 2 1
v -8 2 -0
v -8 3 -0
v -8 3 -1
v -8 8 4
v -8 8 3
v -8 8 1
v -8 9 3
v -8 9 1
v -8 10 3
v -8 10 1
v -8 10 -0
v -8 10 -1
v -8 11 3
v -8 12 3
v -8 12 2
v -8 12 1
v -8 13 4
v -8 13 -0
v -7 1 2
v -7 1 1
v -7 2 2
v -7 2 1
v -6 9 6
v -6 9 4
v -6 10 6
v -6 10 5
v -6 11 5
v -6 11 4
v -5 0 4
v -5 0 1
v -5 1 4
v -5 1 2
v -5 1 1
v -5 2 2
v -5 2 1
v -6 0 4
v -6 0 1
v -6 1 4
v -6 1 2
v -6 1 1
v -6 2 2
v -6 2 1
v -5 9 6
v -5 9 4
v -5 10 6
v -5 10 5
v -5 11 5
v -5 11 4
v -4 1 2
v -4 1 1
v -4 2 2
v -4 2 1
v -3 0 4
v -3 0 1
v -3 1 4
v -3 1 1
v -3 2 4
v -3 2 1
v -3 2 -0
v -3 3 -0
v -3 3 -1
v -3 8 4
v -3 8 3
v -3 8 1
v -3 9 3
v -3 9 1
v -3 10 3
v -3 10 1
v -3 10 -0
v -3 10 -1
v -3 11 3
v -3 12 3
v -3 12 2
v -3 12 1
v -3 13 4
v -3 13 -0
v -2 10 3
v -2 10 1
v -2 11 3
v -2 11 2
v -2 12 3
v -2 12 2
v -2 12 1
v 1 8 3
v 1 8 1
v 1 9 3
v 1 9 1
v -6 9 6
v -6 10 6
v -5 9 6
v -5 10 6
v -6 10 5
v -6 11 5
v -5 10 5
v -5 11 5
v -8 0 4
v -8 1 4
v -8 2 4
v -8 8 4
v -8 13 4
v -6 0 4
v -6 1 4
v -6 9 4
v -6 11 4
v -5 0 4
v -5 1 4
v -5 9 4
v -5 11 4
v -3 0 4
v -3 1 4
v -3 2 4
v -3 8 4
v -3 13 4
v -12 8 3
v -12 9 3
v -9 10 3
v -9 11 3
v -9 12 3
v -8 8 3
v -8 9 3
v -8 10 3
v -8 11 3
v -8 12 3
v -3 8 3
v -3 9 3
v -3 10 3
v -3 11 3
v -3 12 3
v -2 10 3
v -2 11 3
v -2 12 3
v 1 8 3
v 1 9 3
v -7 1 2
v -7 2 2
v -6 1 2
v -6 2 2
v -5 1 2
v -5 2 2
v -4 1 2
v -4 2 2
v -12 8 1
v -12 9 1
v -9 10 1
v -9 12 1
v -8 0 1
v -8 1 1
v -8 8 1
v -8 9 1
v -8 10 1
v -8 12 1
v -7 1 1
v -7 2 1
v -6 0 1
v -6 1 1
v -6 2 1
v -5 0 1
v -5 1 1
v -5 2 1
v -4 1 1
v -4 2 1
v -3 0 1
v -3 1 1
v -3 8 1
v -3 9 1
v -3 10 1
v -3 12 1
v -2 10 1
v -2 12 1
v 1 8 1
v 1 9 1
v -8 2 -0
v -8 3 -0
v -8 10 -0
v -8 13 -0
v -3 2 -0
v -3 3 -0
v -3 10 -0
v -3 13 -0
v -8 3 -1
v -8 10 -1
v -3 3 -1
v -3 10 -1
v -8 0 4
v -6 0 4
v -5 0 4
v -3 0 4
v -8 0 1
v -6 0 1
v -5 0 1
v -3 0 1
v -8 2 4
v -3 2 4
v -7 2 2
v -6 2 2
v -5 2 2
v -4 2 2
v -8 2 1
v -7 2 1
v -6 2 1
v -5 2 1
v -4 2 1
v -3 2 1
v -8 2 -0
v -3 2 -0
v -8 3 -0
v -3 3 -0
v -8 3 -1
v -3 3 -1
v -12 8 3
v -8 8 3
v -3 8 3
v 1 8 3
v -12 8 1
v -8 8 1
v -3 8 1
v 1 8 1
v -6 9 6
v -5 9 6
v -6 9 4
v -5 9 4
v -9 10 3
v -8 10 3
v -3 10 3
v -2 10 3
v -9 10 1
v -8 10 1
v -3 10 1
v -2 10 1
v -8 1 4
v -6 1 4
v -5 1 4
v -3 1 4
v -7 1 2
v -6 1 2
v -5 1 2
v -4 1 2
v -8 1 1
v -7 1 1
v -4 1 1
v -3 1 1
v -12 9 3
v -8 9 3
v -3 9 3
v 1 9 3
v -12 9 1
v -8 9 1
v -3 9 1
v 1 9 1
v -6 10 6
v -5 10 6
v -6 10 5
v -5 10 5
v -8 10 -0
v -3 10 -0
v -8 10 -1
v -3 10 -1
v -6 11 5
v -5 11 5
v -6 11 4
v -5 11 4
v -9 12 3
v -8 12 3
v -3 12 3
v -2 12 3
v -9 12 2
v -8 12 2
v -3 12 2
v -2 12 2
v -9 12 1
v -8 12 1
v -3 12 1
v -2 12 1
v -8 13 4
v -3 13 4
v -8 13 -0
v -3 13 -0

# faces
f 3/2/1 2/2/1 1/2/1
f 4/2/1 2/2/1 3/2/1
f 7/4/1 6/4/1 5/4/1
f 8/4/1 6/4/1 7/4/1
f 9/5/1 8/5/1 7/5/1
f 10/4/1 6/4/1 8/4/1
f 10/5/1 8/5/1 9/5/1
f 11/4/1 6/4/1 10/4/1
f 14/1/1 13/1/1 12/1/1
f 15/1/1 13/1/1 14/1/1
f 19/2/1 18/2/1 17/2/1
f 21/4/1 17/4/1 16/4/1
f 22/4/1 17/4/1 21/4/1
f 23/2/1 20/2/1 19/2/1
f 23/4/1 17/4/1 22/4/1
f 23/2/1 19/2/1 17/2/1
f 24/2/1 22/2/1 21/2/1
f 25/2/1 20/2/1 23/2/1
f 26/2/1 24/2/1 21/2/1
f 26/2/1 25/2/1 24/2/1
f 27/2/1 20/2/1 25/2/1
f 27/2/1 25/2/1 26/2/1
f 28/2/1 20/2/1 27/2/1
f 29/2/1 20/2/1 28/2/1
f 30/2/1 26/2/1 21/2/1
f 31/2/1 30/2/1 21/2/1
f 33/2/1 28/2/1 27/2/1
f 34/2/1 32/2/1 31/2/1
f 34/2/1 33/2/1 32/2/1
f 34/2/1 31/2/1 21/2/1
f 35/2/1 28/2/1 33/2/1
f 35/2/1 33/2/1 34/2/1
f 38/4/1 37/4/1 36/4/1
f 39/4/1 37/4/1 38/4/1
f 42/1/1 41/1/1 40/1/1
f 43/1/1 41/1/1 42/1/1
f 44/1/1 41/1/1 43/1/1
f 45/1/1 41/1/1 44/1/1
f 48/1/1 47/1/1 46/1/1
f 49/1/1 47/1/1 48/1/1
f 50/1/1 47/1/1 49/1/1
f 51/4/1 50/4/1 49/4/1
f 52/4/1 50/4/1 51/4/1
f 53/1/2 54/1/2 55/1/2
f 55/1/2 54/1/2 56/1/2
f 56/1/2 54/1/2 57/1/2
f 56/4/2 57/4/2 58/4/2
f 58/4/2 57/4/2 59/4/2
f 60/1/2 61/1/2 62/1/2
f 62/1/2 61/1/2 63/1/2
f 63/1/2 61/1/2 64/1/2
f 64/1/2 61/1/2 65/1/2
f 66/4/2 67/4/2 68/4/2
f 68/4/2 67/4/2 69/4/2
f 70/1/2 71/1/2 72/1/2
f 72/1/2 71/1/2 73/1/2
f 75/2/2 76/2/2 77/2/2
f 74/4/2 75/4/2 79/4/2
f 79/4/2 75/4/2 80/4/2
f 77/2/2 78/2/2 81/2/2
f 80/4/2 75/4/2 81/4/2
f 75/2/2 77/2/2 81/2/2
f 79/2/2 80/2/2 82/2/2
f 81/2/2 78/2/2 83/2/2
f 79/2/2 82/2/2 84/2/2
f 82/2/2 83/2/2 84/2/2
f 83/2/2 78/2/2 85/2/2
f 84/2/2 83/2/2 85/2/2
f 85/2/2 78/2/2 86/2/2
f 86/2/2 78/2/2 87/2/2
f 79/2/2 84/2/2 88/2/2
f 79/2/2 88/2/2 89/2/2
f 85/2/2 86/2/2 91/2/2
f 89/2/2 90/2/2 92/2/2
f 90/2/2 91/2/2 92/2/2
f 79/2/2 89/2/2 92/2/2
f 91/2/2 86/2/2 93/2/2
f 92/2/2 91/2/2 93/2/2
f 94/4/2 95/4/2 96/4/2
f 96/4/2 95/4/2 97/4/2
f 96/5/2 97/5/2 98/5/2
f 97/4/2 95/4/2 99/4/2
f 98/5/2 97/5/2 99/5/2
f 99/4/2 95/4/2 100/4/2
f 101/2/2 102/2/2 103/2/2
f 103/2/2 102/2/2 104/2/2
f 107/1/3 106/1/3 105/1/3
f 108/1/3 106/1/3 107/1/3
f 111/1/3 110/1/3 109/1/3
f 112/1/3 110/1/3 111/1/3
f 118/1/3 114/1/3 113/1/3
f 119/1/3 114/1/3 118/1/3
f 120/2/3 117/2/3 116/2/3
f 121/2/3 117/2/3 120/2/3
f 124/2/3 120/2/3 116/2/3
f 125/2/3 117/2/3 121/2/3
f 126/1/3 123/1/3 122/1/3
f 127/1/3 123/1/3 126/1/3
f 128/4/3 116/4/3 115/4/3
f 129/2/3 124/2/3 116/2/3
f 129/4/3 116/4/3 128/4/3
f 129/2/3 125/2/3 124/2/3
f 130/2/3 117/2/3 125/2/3
f 130/2/3 125/2/3 129/2/3
f 136/2/3 132/2/3 131/2/3
f 137/2/3 132/2/3 136/2/3
f 138/4/3 134/4/3 133/4/3
f 139/5/3 135/5/3 134/5/3
f 139/4/3 134/4/3 138/4/3
f 140/5/3 135/5/3 139/5/3
f 146/4/3 144/4/3 143/4/3
f 147/5/3 145/5/3 144/5/3
f 147/4/3 144/4/3 146/4/3
f 148/5/3 145/5/3 147/5/3
f 149/2/3 142/2/3 141/2/3
f 150/2/3 142/2/3 149/2/3
f 153/4/3 152/4/3 151/4/3
f 154/4/3 152/4/3 153/4/3
f 157/4/3 156/4/3 155/4/3
f 158/4/3 156/4/3 157/4/3
f 159/2/4 160/2/4 165/2/4
f 165/2/4 160/2/4 166/2/4
f 161/4/4 162/4/4 167/4/4
f 167/4/4 162/4/4 168/4/4
f 163/1/4 164/1/4 169/1/4
f 163/1/4 169/1/4 171/1/4
f 169/4/4 170/4/4 172/4/4
f 171/1/4 169/1/4 172/1/4
f 172/4/4 170/4/4 173/4/4
f 174/1/4 175/1/4 177/1/4
f 175/4/4 176/4/4 177/4/4
f 177/4/4 176/4/4 178/4/4
f 174/1/4 177/1/4 179/1/4
f 179/1/4 177/1/4 180/1/4
f 183/4/4 184/4/4 185/4/4
f 185/4/4 184/4/4 186/4/4
f 181/2/4 182/2/4 187/2/4
f 187/2/4 182/2/4 188/2/4
f 189/2/4 190/2/4 193/2/4
f 193/2/4 190/2/4 194/2/4
f 191/2/4 192/2/4 195/2/4
f 195/2/4 192/2/4 196/2/4
f 197/2/4 198/2/4 199/2/4
f 199/2/4 198/2/4 200/2/4
f 205/1/5 202/1/5 201/1/5
f 206/1/5 202/1/5 205/1/5
f 207/1/5 204/1/5 203/1/5
f 208/1/5 204/1/5 207/1/5
f 211/4/5 210/4/5 209/4/5
f 212/4/5 210/4/5 211/4/5
f 213/4/5 210/4/5 212/4/5
f 214/4/5 210/4/5 213/4/5
f 215/4/5 211/4/5 209/4/5
f 216/4/5 211/4/5 215/4/5
f 217/4/5 213/4/5 212/4/5
f 218/4/5 213/4/5 217/4/5
f 219/4/5 210/4/5 214/4/5
f 220/4/5 210/4/5 219/4/5
f 221/2/5 218/2/5 217/2/5
f 221/2/5 216/2/5 215/2/5
f 221/2/5 220/2/5 219/2/5
f 221/2/5 219/2/5 218/2/5
f 221/2/5 217/2/5 216/2/5
f 222/2/5 220/2/5 221/2/5
f 225/2/5 224/2/5 223/2/5
f 226/2/5 224/2/5 225/2/5
f 231/2/5 228/2/5 227/2/5
f 232/2/5 228/2/5 231/2/5
f 233/2/5 230/2/5 229/2/5
f 234/2/5 230/2/5 233/2/5
f 237/1/5 236/1/5 235/1/5
f 238/1/5 236/1/5 237/1/5
f 243/4/5 240/4/5 239/4/5
f 244/4/5 240/4/5 243/4/5
f 245/4/5 242/4/5 241/4/5
f 246/4/5 242/4/5 245/4/5
f 247/1/6 248/1/6 251/1/6
f 251/1/6 248/1/6 252/1/6
f 249/1/6 250/1/6 253/1/6
f 253/1/6 250/1/6 254/1/6
f 247/1/6 251/1/6 255/1/6
f 255/1/6 251/1/6 256/1/6
f 254/1/6 250/1/6 257/1/6
f 257/1/6 250/1/6 258/1/6
f 259/2/6 260/2/6 263/2/6
f 263/2/6 260/2/6 264/2/6
f 261/2/6 262/2/6 265/2/6
f 265/2/6 262/2/6 266/2/6
f 267/1/6 268/1/6 269/1/6
f 269/1/6 268/1/6 270/1/6
f 271/2/6 272/2/6 273/2/6
f 273/2/6 272/2/6 274/2/6
f 275/1/6 276/1/6 277/1/6
f 277/1/6 276/1/6 278/1/6
f 279/5/6 280/5/6 283/5/6
f 283/5/6 280/5/6 284/5/6
f 281/5/6 282/5/6 285/5/6
f 285/5/6 282/5/6 286/5/6
f 283/4/6 284/4/6 287/4/6
f 287/4/6 284/4/6 288/4/6
f 285/4/6 286/4/6 289/4/6
f 289/4/6 286/4/6 290/4/6
f 291/2/6 292/2/6 293/2/6
f 293/2/6 292/2/6 294/2/6
